<svg width="13" height="12" viewBox="0 0 13 12" fill="none" xmlns="http://www.w3.org/2000/svg">
<path d="M1.375 1H1.75395C2.39184 1 2.9274 1.48031 2.99658 2.11444L3.50342 6.76056C3.5726 7.39469 4.10816 7.875 4.74605 7.875H10.1538C10.7252 7.875 11.2238 7.48755 11.365 6.93389L12.2275 3.55194C12.429 2.76159 11.8319 1.99306 11.0162 1.99306H3.625M3.64047 10.1406H4.10922M3.64047 10.6093H4.10922M10.5155 10.1406H10.9842M10.5155 10.6093H10.9842M4.5 10.375C4.5 10.7202 4.22018 11 3.875 11C3.52982 11 3.25 10.7202 3.25 10.375C3.25 10.0298 3.52982 9.75 3.875 9.75C4.22018 9.75 4.5 10.0298 4.5 10.375ZM11.375 10.375C11.375 10.7202 11.0952 11 10.75 11C10.4048 11 10.125 10.7202 10.125 10.375C10.125 10.0298 10.4048 9.75 10.75 9.75C11.0952 9.75 11.375 10.0298 11.375 10.375Z" stroke="white" stroke-linecap="round"/>
</svg>
