<svg width="51" height="51" viewBox="0 0 51 51" fill="none" xmlns="http://www.w3.org/2000/svg">
<path d="M14.3889 44.9444C14.3889 48.0127 11.9016 50.5 8.83333 50.5C5.76508 50.5 3.27778 48.0127 3.27778 44.9444C3.27778 41.8762 5.76508 39.3889 8.83333 39.3889C11.9016 39.3889 14.3889 41.8762 14.3889 44.9444ZM14.3889 44.9444H36.6111C39.6794 44.9444 42.1667 42.4571 42.1667 39.3889V28.2778M36.6111 6.05556C36.6111 9.1238 39.0984 11.6111 42.1667 11.6111C45.2349 11.6111 47.7222 9.1238 47.7222 6.05556C47.7222 2.98731 45.2349 0.5 42.1667 0.5C39.0984 0.5 36.6111 2.98731 36.6111 6.05556ZM36.6111 6.05556H14.3889C11.3206 6.05556 8.83333 8.54286 8.83333 11.6111V22.7222M50.5 33.8333L43.1488 25.937C42.6064 25.3543 41.727 25.3543 41.1846 25.937L33.8333 33.8333M17.1667 17.1667L9.81542 25.063C9.27303 25.6457 8.39363 25.6457 7.85124 25.063L0.5 17.1667" stroke="#666666" stroke-linecap="round"/>
</svg>
