<svg width="37" height="36" viewBox="0 0 37 36" fill="none" xmlns="http://www.w3.org/2000/svg">
<rect x="0.5" width="36" height="36" rx="12" fill="#F6F6F6"/>
<path d="M15.0478 15.1259V24.1538H12.6364V15.1259H15.0478ZM12.4863 12.7729C12.4863 12.4225 12.6086 12.1332 12.8534 11.9052C13.0981 11.6771 13.4263 11.5631 13.8379 11.5631C14.244 11.5631 14.5694 11.6771 14.8142 11.9052C15.0645 12.1332 15.1896 12.4225 15.1896 12.7729C15.1896 13.1234 15.0645 13.4126 14.8142 13.6407C14.5694 13.8687 14.244 13.9828 13.8379 13.9828C13.4263 13.9828 13.0981 13.8687 12.8534 13.6407C12.6086 13.4126 12.4863 13.1234 12.4863 12.7729ZM19.7283 17.0533V24.1538H17.3253V15.1259H19.5781L19.7283 17.0533ZM19.3779 19.3228H18.727C18.727 18.6553 18.8133 18.0545 18.9857 17.5205C19.1581 16.981 19.4001 16.5221 19.7116 16.1438C20.0231 15.76 20.393 15.468 20.8213 15.2677C21.2552 15.0619 21.7391 14.959 22.2731 14.959C22.6959 14.959 23.0825 15.0202 23.4329 15.1426C23.7834 15.2649 24.0837 15.4596 24.334 15.7266C24.5899 15.9936 24.7846 16.3468 24.9181 16.7863C25.0572 17.2257 25.1267 17.7625 25.1267 18.3966V24.1538H22.707V18.3883C22.707 17.9878 22.6514 17.6763 22.5401 17.4538C22.4289 17.2313 22.2648 17.0755 22.0479 16.9865C21.8365 16.892 21.575 16.8447 21.2635 16.8447C20.9409 16.8447 20.66 16.9087 20.4208 17.0366C20.1872 17.1645 19.9925 17.3425 19.8368 17.5706C19.6866 17.7931 19.5725 18.0545 19.4947 18.3549C19.4168 18.6553 19.3779 18.9779 19.3779 19.3228Z" fill="#666666"/>
</svg>
