<svg width="51" height="51" viewBox="0 0 51 51" fill="none" xmlns="http://www.w3.org/2000/svg">
<path d="M36.25 19.5789L36.092 17.4493C35.9473 15.4983 34.2614 13.9868 32.2301 13.9868H28.0917M13.3333 40.0833H10.9553C8.70832 40.0833 6.93326 38.2477 7.09335 36.0896L8.47612 17.4493C8.62084 15.4983 10.3068 13.9868 12.338 13.9868H16.4764M16.4764 13.9868V10.2587C16.4764 7.1703 19.0766 4.66663 22.2841 4.66663C25.4915 4.66663 28.0917 7.1703 28.0917 10.2587V13.9868M16.4764 13.9868H28.0917M36.25 31.75C36.25 34.0511 34.3845 35.9166 32.0833 35.9166C29.7821 35.9166 27.9166 34.0511 27.9166 31.75M23.75 44.25H40.4166C42.7178 44.25 44.5833 42.3845 44.5833 40.0833V29.6666C44.5833 27.3654 42.7178 25.5 40.4166 25.5H23.75C21.4488 25.5 19.5833 27.3654 19.5833 29.6666V40.0833C19.5833 42.3845 21.4488 44.25 23.75 44.25Z" stroke="#666666" stroke-linecap="round"/>
</svg>
