<svg width="51" height="41" viewBox="0 0 51 41" fill="none" xmlns="http://www.w3.org/2000/svg">
<path d="M30.1666 33.8333V1.83333C30.1666 1.09695 29.607 0.5 28.9166 0.5H1.41663C0.72627 0.5 0.166626 1.09695 0.166626 1.83333V33.8333C0.166626 34.5697 0.72627 35.1667 1.41663 35.1667H5.16663M30.1666 33.8333C30.1666 34.5697 29.607 35.1667 28.9166 35.1667H15.1666M30.1666 33.8333V9.83333C30.1666 9.09695 30.7263 8.5 31.4166 8.5H39.6489C39.9804 8.5 40.2983 8.64048 40.5327 8.89052L49.8005 18.7761C50.0349 19.0262 50.1666 19.3653 50.1666 19.719V33.8333C50.1666 34.5697 49.607 35.1667 48.9166 35.1667H45.1666M30.1666 33.8333C30.1666 34.5697 30.7263 35.1667 31.4166 35.1667H35.1666M5.16663 35.1667C5.16663 38.1122 7.4052 40.5 10.1666 40.5C12.928 40.5 15.1666 38.1122 15.1666 35.1667M5.16663 35.1667C5.16663 32.2211 7.4052 29.8333 10.1666 29.8333C12.928 29.8333 15.1666 32.2211 15.1666 35.1667M35.1666 35.1667C35.1666 38.1122 37.4052 40.5 40.1666 40.5C42.928 40.5 45.1666 38.1122 45.1666 35.1667M35.1666 35.1667C35.1666 32.2211 37.4052 29.8333 40.1666 29.8333C42.928 29.8333 45.1666 32.2211 45.1666 35.1667" stroke="#666666"/>
</svg>
