<svg width="31" height="30" viewBox="0 0 31 30" fill="none" xmlns="http://www.w3.org/2000/svg">
<rect x="0.5" width="30" height="30" rx="15" fill="white"/>
<path fill-rule="evenodd" clip-rule="evenodd" d="M15.4949 9.93011C13.9953 8.18259 11.4948 7.71251 9.61602 9.31271C7.73723 10.9129 7.47273 13.5884 8.94815 15.4809C10.1749 17.0545 13.8873 20.3732 15.1041 21.4473C15.2402 21.5675 15.3083 21.6276 15.3877 21.6512C15.457 21.6718 15.5328 21.6718 15.6021 21.6512C15.6815 21.6276 15.7495 21.5675 15.8857 21.4473C17.1024 20.3732 20.8149 17.0545 22.0416 15.4809C23.517 13.5884 23.2848 10.8961 21.3737 9.31271C19.4626 7.72935 16.9944 8.18259 15.4949 9.93011Z" stroke="#737373" stroke-linecap="round" stroke-linejoin="round"/>
</svg>
