<svg width="39" height="38" viewBox="0 0 39 38" fill="none" xmlns="http://www.w3.org/2000/svg">
<rect x="0.5" y="0.5" width="38" height="37" rx="3.5" fill="white"/>
<rect x="0.5" y="0.5" width="38" height="37" rx="3.5" stroke="#B4B4B4" stroke-linejoin="bevel"/>
<path d="M13.875 14H14.2539C14.8918 14 15.4274 14.4803 15.4966 15.1144L16.0034 19.7606C16.0726 20.3947 16.6082 20.875 17.2461 20.875H22.6538C23.2252 20.875 23.7238 20.4876 23.865 19.9339L24.7275 16.5519C24.929 15.7616 24.3319 14.9931 23.5162 14.9931H16.125M16.1405 23.1406H16.6092M16.1405 23.6093H16.6092M23.0155 23.1406H23.4842M23.0155 23.6093H23.4842M17 23.375C17 23.7202 16.7202 24 16.375 24C16.0298 24 15.75 23.7202 15.75 23.375C15.75 23.0298 16.0298 22.75 16.375 22.75C16.7202 22.75 17 23.0298 17 23.375ZM23.875 23.375C23.875 23.7202 23.5952 24 23.25 24C22.9048 24 22.625 23.7202 22.625 23.375C22.625 23.0298 22.9048 22.75 23.25 22.75C23.5952 22.75 23.875 23.0298 23.875 23.375Z" stroke="#666666" stroke-linecap="round"/>
</svg>
