<svg width="25" height="24" viewBox="0 0 25 24" fill="none" xmlns="http://www.w3.org/2000/svg">
<rect x="0.5" width="24" height="24" rx="4" fill="#438DB8"/>
<path d="M6.875 7H7.25395C7.89184 7 8.4274 7.48031 8.49658 8.11444L9.00342 12.7606C9.0726 13.3947 9.60816 13.875 10.2461 13.875H15.6538C16.2252 13.875 16.7238 13.4876 16.865 12.9339L17.7275 9.55194C17.929 8.76159 17.3319 7.99306 16.5162 7.99306H9.125M9.14047 16.1406H9.60922M9.14047 16.6093H9.60922M16.0155 16.1406H16.4842M16.0155 16.6093H16.4842M10 16.375C10 16.7202 9.72018 17 9.375 17C9.02982 17 8.75 16.7202 8.75 16.375C8.75 16.0298 9.02982 15.75 9.375 15.75C9.72018 15.75 10 16.0298 10 16.375ZM16.875 16.375C16.875 16.7202 16.5952 17 16.25 17C15.9048 17 15.625 16.7202 15.625 16.375C15.625 16.0298 15.9048 15.75 16.25 15.75C16.5952 15.75 16.875 16.0298 16.875 16.375Z" stroke="white" stroke-linecap="round"/>
</svg>
