<svg width="25" height="24" viewBox="0 0 25 24" fill="none" xmlns="http://www.w3.org/2000/svg">
<rect x="0.333374" width="24" height="24" rx="12" fill="#F6F6F6"/>
<path d="M12.3086 9.38347C10.8753 9.38347 9.71922 10.5396 9.71922 11.9729C9.71922 13.4062 10.8753 14.5623 12.3086 14.5623C13.7419 14.5623 14.898 13.4062 14.898 11.9729C14.898 10.5396 13.7419 9.38347 12.3086 9.38347ZM12.3086 13.6563C11.3824 13.6563 10.6252 12.9013 10.6252 11.9729C10.6252 11.0444 11.3801 10.2894 12.3086 10.2894C13.2371 10.2894 13.9921 11.0444 13.9921 11.9729C13.9921 12.9013 13.2348 13.6563 12.3086 13.6563ZM15.6079 9.27755C15.6079 9.61334 15.3375 9.88152 15.0039 9.88152C14.6681 9.88152 14.4 9.61108 14.4 9.27755C14.4 8.94402 14.6704 8.67358 15.0039 8.67358C15.3375 8.67358 15.6079 8.94402 15.6079 9.27755ZM17.3229 9.89053C17.2846 9.08149 17.0998 8.36484 16.5071 7.7744C15.9166 7.18395 15.2 6.99915 14.3909 6.95859C13.5571 6.91126 11.0579 6.91126 10.224 6.95859C9.41724 6.9969 8.70059 7.1817 8.10789 7.77214C7.51519 8.36259 7.33265 9.07923 7.29209 9.88828C7.24476 10.7221 7.24476 13.2214 7.29209 14.0552C7.3304 14.8642 7.51519 15.5809 8.10789 16.1713C8.70059 16.7618 9.41498 16.9466 10.224 16.9871C11.0579 17.0345 13.5571 17.0345 14.3909 16.9871C15.2 16.9488 15.9166 16.764 16.5071 16.1713C17.0975 15.5809 17.2823 14.8642 17.3229 14.0552C17.3702 13.2214 17.3702 10.7244 17.3229 9.89053ZM16.2457 14.9499C16.0699 15.3916 15.7296 15.7319 15.2856 15.9099C14.6208 16.1736 13.0433 16.1127 12.3086 16.1127C11.5739 16.1127 9.99416 16.1713 9.3316 15.9099C8.88989 15.7341 8.5496 15.3938 8.37156 14.9499C8.10789 14.2851 8.16874 12.7075 8.16874 11.9729C8.16874 11.2382 8.11014 9.65841 8.37156 8.99585C8.54734 8.55414 8.88764 8.21385 9.3316 8.03581C9.99641 7.77214 11.5739 7.83299 12.3086 7.83299C13.0433 7.83299 14.6231 7.7744 15.2856 8.03581C15.7273 8.21159 16.0676 8.55189 16.2457 8.99585C16.5093 9.66066 16.4485 11.2382 16.4485 11.9729C16.4485 12.7075 16.5093 14.2873 16.2457 14.9499Z" fill="#666666"/>
</svg>
