<svg width="31" height="30" viewBox="0 0 31 30" fill="none" xmlns="http://www.w3.org/2000/svg">
<rect x="0.5" width="30" height="30" rx="15" fill="#D72A48"/>
<path d="M11.3763 14.4909C11.423 14.7309 11.4463 15.0076 11.4463 15.3209C11.4463 15.6276 11.4263 15.8742 11.3863 16.0609C11.293 16.5009 11.0797 16.8409 10.7463 17.0809C10.413 17.3142 9.98299 17.4309 9.45633 17.4309C9.00299 17.4309 8.61633 17.3176 8.29633 17.0909C7.98299 16.8642 7.76966 16.5576 7.65633 16.1709C7.62966 16.0976 7.60633 16.0176 7.58633 15.9309C7.57299 15.8376 7.56633 15.7642 7.56633 15.7109L7.55633 15.6309H8.46633C8.47966 15.7442 8.49633 15.8309 8.51633 15.8909C8.58299 16.1309 8.70633 16.3176 8.88633 16.4509C9.06633 16.5776 9.27966 16.6409 9.52633 16.6409C9.78633 16.6409 10.003 16.5742 10.1763 16.4409C10.3563 16.3076 10.473 16.1176 10.5263 15.8709C10.573 15.7576 10.5997 15.5809 10.6063 15.3409C10.613 15.0942 10.593 14.8909 10.5463 14.7309C10.4397 14.2242 10.1063 13.9709 9.54633 13.9709C9.29966 13.9709 9.06966 14.0342 8.85633 14.1609C8.64966 14.2876 8.52633 14.4509 8.48633 14.6509H7.56633V10.7609H11.2663V11.5309H8.45633L8.44633 13.6609C8.75299 13.3542 9.15633 13.2009 9.65633 13.2009C10.1097 13.2009 10.4897 13.3142 10.7963 13.5409C11.103 13.7609 11.2963 14.0776 11.3763 14.4909ZM16.1268 16.9009C15.7535 17.2609 15.2501 17.4409 14.6168 17.4409C13.9835 17.4409 13.4801 17.2609 13.1068 16.9009C12.7335 16.5409 12.5468 16.0576 12.5468 15.4509V12.6709C12.5468 12.0642 12.7335 11.5842 13.1068 11.2309C13.4801 10.8709 13.9835 10.6909 14.6168 10.6909C15.2501 10.6909 15.7535 10.8709 16.1268 11.2309C16.5068 11.5842 16.6968 12.0642 16.6968 12.6709V15.4509C16.6968 16.0576 16.5068 16.5409 16.1268 16.9009ZM14.6168 16.6709C14.9768 16.6709 15.2635 16.5642 15.4768 16.3509C15.6968 16.1376 15.8068 15.8542 15.8068 15.5009V12.6309C15.8068 12.2776 15.6968 11.9942 15.4768 11.7809C15.2635 11.5676 14.9768 11.4609 14.6168 11.4609C14.2635 11.4609 13.9768 11.5676 13.7568 11.7809C13.5435 11.9942 13.4368 12.2776 13.4368 12.6309V15.5009C13.4368 15.8542 13.5435 16.1376 13.7568 16.3509C13.9768 16.5642 14.2635 16.6709 14.6168 16.6709ZM20.33 12.7609C20.0567 13.0409 19.7233 13.1809 19.33 13.1809C18.9367 13.1809 18.6 13.0409 18.32 12.7609C18.04 12.4809 17.9 12.1376 17.9 11.7309C17.9 11.3309 18.04 10.9909 18.32 10.7109C18.6 10.4309 18.9367 10.2909 19.33 10.2909C19.7233 10.2909 20.0567 10.4309 20.33 10.7109C20.6033 10.9909 20.74 11.3309 20.74 11.7309C20.74 12.1376 20.6033 12.4809 20.33 12.7609ZM18.92 17.3809L22.67 10.3209H23.31L19.57 17.3809H18.92ZM19.33 12.7109C19.5833 12.7109 19.8 12.6176 19.98 12.4309C20.16 12.2376 20.25 12.0042 20.25 11.7309C20.25 11.4642 20.16 11.2376 19.98 11.0509C19.8 10.8576 19.5833 10.7609 19.33 10.7609C19.07 10.7609 18.8467 10.8576 18.66 11.0509C18.48 11.2376 18.39 11.4642 18.39 11.7309C18.39 12.0042 18.48 12.2376 18.66 12.4309C18.84 12.6176 19.0633 12.7109 19.33 12.7109ZM22.94 17.4109C22.5467 17.4109 22.21 17.2709 21.93 16.9909C21.65 16.7109 21.51 16.3676 21.51 15.9609C21.51 15.5609 21.65 15.2209 21.93 14.9409C22.21 14.6609 22.5467 14.5209 22.94 14.5209C23.3333 14.5209 23.6667 14.6609 23.94 14.9409C24.2133 15.2209 24.35 15.5609 24.35 15.9609C24.35 16.3609 24.21 16.7042 23.93 16.9909C23.6567 17.2709 23.3267 17.4109 22.94 17.4109ZM22.94 16.9409C23.1933 16.9409 23.41 16.8476 23.59 16.6609C23.77 16.4676 23.86 16.2342 23.86 15.9609C23.86 15.6942 23.77 15.4676 23.59 15.2809C23.41 15.0876 23.1933 14.9909 22.94 14.9909C22.68 14.9909 22.4567 15.0876 22.27 15.2809C22.09 15.4676 22 15.6942 22 15.9609C22 16.2342 22.09 16.4676 22.27 16.6609C22.45 16.8476 22.6733 16.9409 22.94 16.9409Z" fill="white"/>
</svg>
